# xmcd CD database file
#
# Track frame offsets:
#	183
#	14883
#	34083
#	48633
#	66708
#	87558
#	104958
#	127308
#	143808
#
# Disc length: 2287 seconds
#
# Revision: 0
# Processed by: cddbd v1.4PL0 Copyright (c) Steve Scherf et al.
# Submitted via: Feurio! 1.65 - http://www.feurio.com
#
DISCID=9a08ed09
DTITLE=Savoy Brown - Savage Return
DYEAR=1978
DGENRE=Blues
TTITLE0=The First Night
TTITLE1=Don't Do It Baby, Do It
TTITLE2=Spirit High
TTITLE3=Play It Right
TTITLE4=Walk Before You Run
TTITLE5=My Own Man
TTITLE6=I'm Alright Now
TTITLE7=Rock 'N' Roll Man
TTITLE8=Double Lover
EXTD=ARD Deram 1978 844243-2
EXTT0=
EXTT1=
EXTT2=
EXTT3=
EXTT4=
EXTT5=
EXTT6=
EXTT7=
EXTT8=
PLAYORDER=
